/* XPM */
const char * compiler24_xpm[] = {
"24 24 140 2",
"  	c None",
". 	c #51473A",
"+ 	c #3E3730",
"@ 	c #373124",
"# 	c #28281D",
"$ 	c #23261C",
"% 	c #21271D",
"& 	c #22271D",
"* 	c #473A2A",
"= 	c #342D1F",
"- 	c #2A281C",
"; 	c #27281B",
"> 	c #26291B",
", 	c #272C1D",
"' 	c #303322",
") 	c #393B29",
"! 	c #534633",
"~ 	c #443A2A",
"{ 	c #393423",
"] 	c #353324",
"^ 	c #353623",
"/ 	c #383B26",
"( 	c #3C3D27",
"_ 	c #49452A",
": 	c #514433",
"< 	c #3C3525",
"[ 	c #3A3626",
"} 	c #3C3928",
"| 	c #373827",
"1 	c #3A3D29",
"2 	c #353825",
"3 	c #3E3D26",
"4 	c #383224",
"5 	c #312D21",
"6 	c #313023",
"7 	c #303323",
"8 	c #2F3221",
"9 	c #282B1D",
"0 	c #2C2E1E",
"a 	c #383124",
"b 	c #312D20",
"c 	c #2D2E20",
"d 	c #2E3222",
"e 	c #2A2E1E",
"f 	c #262A1C",
"g 	c #272A1C",
"h 	c #403729",
"i 	c #302B1F",
"j 	c #2B2B1F",
"k 	c #2A3022",
"l 	c #292D1F",
"m 	c #26281C",
"n 	c #25281C",
"o 	c #E2D6CD",
"p 	c #E4D5C7",
"q 	c #B7AAA4",
"r 	c #463B2C",
"s 	c #302A1E",
"t 	c #2B2A1E",
"u 	c #2D3223",
"v 	c #272B1E",
"w 	c #22261A",
"x 	c #54504B",
"y 	c #B9AFAC",
"z 	c #E1D2C6",
"A 	c #E2CDBC",
"B 	c #B7A495",
"C 	c #6C6360",
"D 	c #2F2A1E",
"E 	c #2C2B1F",
"F 	c #292E21",
"G 	c #282B1F",
"H 	c #262B1D",
"I 	c #23271B",
"J 	c #4C4A40",
"K 	c #D1BDB1",
"L 	c #D5BCA9",
"M 	c #A19185",
"N 	c #322C20",
"O 	c #2A291D",
"P 	c #262C21",
"Q 	c #252B21",
"R 	c #22291F",
"S 	c #24291E",
"T 	c #2A2D22",
"U 	c #AD9A8D",
"V 	c #B5A496",
"W 	c #3B3324",
"X 	c #29281D",
"Y 	c #2A2E20",
"Z 	c #252B1F",
"` 	c #21281D",
" .	c #23291E",
"..	c #21261D",
"+.	c #85786E",
"@.	c #9C928D",
"#.	c #25271C",
"$.	c #1E2418",
"%.	c #1E241B",
"&.	c #1A221C",
"*.	c #1C241E",
"=.	c #1C241F",
"-.	c #28281F",
";.	c #4E4741",
">.	c #3E4344",
",.	c #313832",
"'.	c #5E503D",
").	c #282A20",
"!.	c #202521",
"~.	c #1A2122",
"{.	c #192223",
"].	c #1A2323",
"^.	c #1A2120",
"/.	c #23271F",
"(.	c #292C23",
"_.	c #2D322E",
":.	c #454F47",
"<.	c #505A48",
"[.	c #555F4E",
"}.	c #3C4142",
"|.	c #2F322C",
"1.	c #4F523B",
"2.	c #494831",
"3.	c #3C3827",
"4.	c #303226",
"5.	c #282C23",
"6.	c #323425",
"7.	c #313122",
"8.	c #2C2E24",
"9.	c #292D27",
"0.	c #2C312C",
"a.	c #2E342E",
"b.	c #5F5B38",
"c.	c #636038",
"d.	c #5F5B35",
"e.	c #555330",
"f.	c #4D4B2E",
"g.	c #42412A",
"h.	c #3B3C2B",
"i.	c #343528",
"                                                ",
"                                                ",
"                                                ",
"        . +                                     ",
"        @ # $ % &                               ",
"      * = - ; > , ' )                           ",
"          ! ~ { ] ^ / ( _                       ",
"            : < [ } | 1 2 3                     ",
"              4 5 6 7 8 9 0                     ",
"              a b c d e f g                     ",
"              h i j k l m n         o p q       ",
"              r s t u v g w x y z A B C         ",
"                D E F G H I J K L M             ",
"                N O P Q R S T U V               ",
"                W X Y Z `  ...+.@.              ",
"                  #.$.%.&.*.=.-.;.  >.,.        ",
"                '.).!.~.{.].^./.(._.:.<.[.      ",
"              }.|.1.2.3.4.5.6.7.8.9.0.a.        ",
"                      b.c.d.e.f.g.h.i.          ",
"                                                ",
"                                                ",
"                                                ",
"                                                ",
"                                                "};
