/* XPM */
const char * compiler32_xpm[] = {
"32 32 236 2",
"  	c None",
". 	c #4F4539",
"+ 	c #3D3730",
"@ 	c #3E372B",
"# 	c #2D2B21",
"$ 	c #24261E",
"% 	c #21251F",
"& 	c #4C4235",
"* 	c #3B3325",
"= 	c #28271B",
"- 	c #23261B",
"; 	c #23271B",
"> 	c #22271C",
", 	c #22271D",
"' 	c #282E22",
") 	c #3C3223",
"! 	c #352E1F",
"~ 	c #2E2B1E",
"{ 	c #2A291C",
"] 	c #292A1C",
"^ 	c #272B1C",
"/ 	c #292D1E",
"( 	c #2E3120",
"_ 	c #373926",
": 	c #3B3C29",
"< 	c #534531",
"[ 	c #4C402E",
"} 	c #423928",
"| 	c #393423",
"1 	c #353323",
"2 	c #333222",
"3 	c #333422",
"4 	c #373A25",
"5 	c #3A3C27",
"6 	c #3F3D27",
"7 	c #49442A",
"8 	c #504432",
"9 	c #3F3726",
"0 	c #393524",
"a 	c #3A3827",
"b 	c #3C3B28",
"c 	c #393A27",
"d 	c #393B29",
"e 	c #3C3E2A",
"f 	c #3D3E28",
"g 	c #3F3F29",
"h 	c #514B2E",
"i 	c #4D4232",
"j 	c #3C3526",
"k 	c #373325",
"l 	c #363325",
"m 	c #333324",
"n 	c #353826",
"o 	c #333623",
"p 	c #2F3321",
"q 	c #2E3221",
"r 	c #383622",
"s 	c #3F3729",
"t 	c #302C20",
"u 	c #312D21",
"v 	c #323023",
"w 	c #2E3022",
"x 	c #2F3322",
"y 	c #282B1C",
"z 	c #2B2E1E",
"A 	c #2B2D1D",
"B 	c #3D3427",
"C 	c #322D21",
"D 	c #312D20",
"E 	c #2E2E20",
"F 	c #2D2F21",
"G 	c #2E3121",
"H 	c #2A2E1E",
"I 	c #262A1C",
"J 	c #282B1D",
"K 	c #272A1C",
"L 	c #473C2E",
"M 	c #342E22",
"N 	c #312C20",
"O 	c #2D2C20",
"P 	c #2B2E20",
"Q 	c #2C3121",
"R 	c #272B1D",
"S 	c #26291C",
"T 	c #272A1D",
"U 	c #25271C",
"V 	c #B3ABA8",
"W 	c #493D2F",
"X 	c #352E21",
"Y 	c #2F2B1F",
"Z 	c #2B2B1F",
"` 	c #292D1F",
" .	c #2D3223",
"..	c #272B1E",
"+.	c #26281C",
"@.	c #24271D",
"#.	c #C1B9B7",
"$.	c #E1D6CB",
"%.	c #E4D6CA",
"&.	c #E3D1C2",
"*.	c #CDBCAE",
"=.	c #A59891",
"-.	c #A39896",
";.	c #362F21",
">.	c #2F2A1D",
",.	c #2C2A1E",
"'.	c #2B2E21",
").	c #2C3021",
"!.	c #262A1D",
"~.	c #26291D",
"{.	c #27291F",
"].	c #706B65",
"^.	c #C7BDB8",
"/.	c #DACCC2",
"(.	c #DDCABB",
"_.	c #DEC8B6",
":.	c #B4A192",
"<.	c #766D68",
"[.	c #393124",
"}.	c #2D291D",
"|.	c #2D2A1E",
"1.	c #2A2E21",
"2.	c #292D20",
"3.	c #272A1E",
"4.	c #262B1D",
"5.	c #252A1D",
"6.	c #6F6A60",
"7.	c #DBC8BD",
"8.	c #D3BDAE",
"9.	c #DAC0AB",
"0.	c #A39386",
"a.	c #645D5E",
"b.	c #423929",
"c.	c #2E291D",
"d.	c #2C291D",
"e.	c #282C21",
"f.	c #252B21",
"g.	c #282C20",
"h.	c #252A1E",
"i.	c #21261B",
"j.	c #47443B",
"k.	c #AF9C90",
"l.	c #CAB19D",
"m.	c #9A8C83",
"n.	c #595459",
"o.	c #29281C",
"p.	c #272D21",
"q.	c #232920",
"r.	c #21281F",
"s.	c #23291F",
"t.	c #23281D",
"u.	c #2E3026",
"v.	c #8F8075",
"w.	c #C4B2A4",
"x.	c #807A7A",
"y.	c #3A3324",
"z.	c #29281D",
"A.	c #22281C",
"B.	c #22281E",
"C.	c #23291E",
"D.	c #1F241B",
"E.	c #5C564C",
"F.	c #A2948C",
"G.	c #8C8281",
"H.	c #21261A",
"I.	c #202619",
"J.	c #1F261C",
"K.	c #1D241C",
"L.	c #1D251D",
"M.	c #1F261F",
"N.	c #1C241E",
"O.	c #26281F",
"P.	c #595047",
"Q.	c #5D5652",
"R.	c #504431",
"S.	c #26261B",
"T.	c #1B2019",
"U.	c #181F1D",
"V.	c #182020",
"W.	c #182120",
"X.	c #1A2322",
"Y.	c #1A2321",
"Z.	c #192120",
"`.	c #1F231D",
" +	c #2A2A20",
".+	c #282B27",
"++	c #373D39",
"@+	c #464F4A",
"#+	c #4C5649",
"$+	c #4E5848",
"%+	c #4A5448",
"&+	c #474A3D",
"*+	c #6B5E4F",
"=+	c #33352F",
"-+	c #363D32",
";+	c #2A2F25",
">+	c #1E2522",
",+	c #1A2324",
"'+	c #182123",
")+	c #182222",
"!+	c #1C2320",
"~+	c #242922",
"{+	c #2A2D24",
"]+	c #262A24",
"^+	c #2B2F29",
"/+	c #363E36",
"(+	c #3E463C",
"_+	c #434849",
":+	c #343837",
"<+	c #2B2F27",
"[+	c #51553D",
"}+	c #515134",
"|+	c #4B472F",
"1+	c #3F3A28",
"2+	c #373727",
"3+	c #2E3124",
"4+	c #303325",
"5+	c #383927",
"6+	c #363524",
"7+	c #2F3023",
"8+	c #2C2E25",
"9+	c #292E28",
"0+	c #2B302B",
"a+	c #605E3C",
"b+	c #5D5B3A",
"c+	c #5F5A37",
"d+	c #615E37",
"e+	c #595733",
"f+	c #5C5933",
"g+	c #53502E",
"h+	c #4C4A2D",
"i+	c #434129",
"j+	c #393827",
"k+	c #353728",
"l+	c #303326",
"m+	c #2F3127",
"                                                                ",
"                                                                ",
"                                                                ",
"                                                                ",
"            . +                                                 ",
"            @ # $ %                                             ",
"        & * = - - ; > , '                                       ",
"          ) ! ~ { ] ^ / ( _ :                                   ",
"            < [ } | 1 2 3 4 5 6 7                               ",
"                8 9 0 a b c d e f g h                           ",
"                  i j k l m n o p q r                           ",
"                  s t u v w x ( y z A                           ",
"                  B C D E F G H I J K                           ",
"                  L M N O P Q R S T U             V             ",
"                  W X Y Z `  ...+.I @.    #.$.%.&.*.=.-.        ",
"                    ;.>.,.'.).!.T ~.{.].^./.(._.:.<.            ",
"                    [.}.|.1.2.3.4.5.~.6.7.8.9.0.a.              ",
"                    b.c.d.e.f.g.h.h.i.j.k.l.m.n.                ",
"                      N o.2.p.q.r.s.t.u.v.w.x.                  ",
"                      y.z.J 2.h.A.B.C.D.E.F.G.                  ",
"                        +.H.I.J.K.L.M.N.O.P.Q.                  ",
"                      R.S.T.U.V.W.X.Y.Z.`. +.+++@+#+$+%+&+      ",
"                      *+=+-+;+>+,+'+)+!+~+{+]+^+/+(+            ",
"                  _+:+<+[+}+|+1+2+3+4+5+6+7+8+9+0+0+            ",
"                          a+b+c+d+e+f+g+h+i+j+k+l+m+            ",
"                                                                ",
"                                                                ",
"                                                                ",
"                                                                ",
"                                                                ",
"                                                                ",
"                                                                "};
