/* XPM */
const char * compiler48_xpm[] = {
"48 48 508 2",
"  	c None",
". 	c #4C443C",
"+ 	c #52483C",
"@ 	c #453D32",
"# 	c #3D352B",
"$ 	c #322F27",
"% 	c #292B26",
"& 	c #504537",
"* 	c #423A30",
"= 	c #393227",
"- 	c #322E23",
"; 	c #27271D",
"> 	c #23261D",
", 	c #22261D",
"' 	c #20251D",
") 	c #21261F",
"! 	c #493E2F",
"~ 	c #383223",
"{ 	c #2A281C",
"] 	c #24251A",
"^ 	c #23261B",
"/ 	c #22271A",
"( 	c #21271C",
"_ 	c #22271C",
": 	c #20261C",
"< 	c #22281E",
"[ 	c #262B22",
"} 	c #3E3323",
"| 	c #342D1E",
"1 	c #29261A",
"2 	c #27261A",
"3 	c #25251A",
"4 	c #24261A",
"5 	c #25281A",
"6 	c #24281A",
"7 	c #23291B",
"8 	c #24291C",
"9 	c #262C1E",
"0 	c #2A2F20",
"a 	c #333624",
"b 	c #36382A",
"c 	c #473A28",
"d 	c #393020",
"e 	c #342D1F",
"f 	c #2E2A1D",
"g 	c #2B2A1C",
"h 	c #2C2B1D",
"i 	c #2A2C1D",
"j 	c #282A1C",
"k 	c #272B1C",
"l 	c #292C1D",
"m 	c #2D301F",
"n 	c #363825",
"o 	c #3C3E27",
"p 	c #3E3C28",
"q 	c #614F39",
"r 	c #4E412E",
"s 	c #493E2D",
"t 	c #3F3625",
"u 	c #373122",
"v 	c #363222",
"w 	c #343221",
"x 	c #323221",
"y 	c #323321",
"z 	c #313221",
"A 	c #333523",
"B 	c #383A26",
"C 	c #3A3B26",
"D 	c #3E3D28",
"E 	c #423E27",
"F 	c #4F452A",
"G 	c #594C38",
"H 	c #4E4230",
"I 	c #463C2A",
"J 	c #3F3626",
"K 	c #3B3625",
"L 	c #383525",
"M 	c #373524",
"N 	c #363724",
"O 	c #373925",
"P 	c #373A26",
"Q 	c #393C27",
"R 	c #3B3C27",
"S 	c #3A3C27",
"T 	c #414128",
"U 	c #48452A",
"V 	c #5B5736",
"W 	c #61513D",
"X 	c #463C2B",
"Y 	c #383323",
"Z 	c #353222",
"` 	c #363424",
" .	c #3A3826",
"..	c #3E3B28",
"+.	c #3D3B28",
"@.	c #393A27",
"#.	c #3A3C29",
"$.	c #3D3F2B",
"%.	c #3E402B",
"&.	c #3B3E28",
"*.	c #393A26",
"=.	c #524D2F",
"-.	c #554835",
";.	c #483D2D",
">.	c #403827",
",.	c #3B3525",
"'.	c #3B3626",
").	c #393526",
"!.	c #343324",
"~.	c #323425",
"{.	c #353726",
"].	c #373A27",
"^.	c #333623",
"/.	c #2E3121",
"(.	c #303321",
"_.	c #353521",
":.	c #473B23",
"<.	c #6B5A48",
"[.	c #4A3F31",
"}.	c #373023",
"|.	c #322E21",
"1.	c #332F22",
"2.	c #333023",
"3.	c #313022",
"4.	c #313223",
"5.	c #333525",
"6.	c #313423",
"7.	c #2E311F",
"8.	c #2D301E",
"9.	c #282C1D",
"0.	c #2D3120",
"a.	c #2E301F",
"b.	c #332E1D",
"c.	c #352F22",
"d.	c #2F2B1F",
"e.	c #2E2A1F",
"f.	c #322E22",
"g.	c #323023",
"h.	c #2C2E20",
"i.	c #2E3122",
"j.	c #303323",
"k.	c #2D3221",
"l.	c #262A1B",
"m.	c #282B1C",
"n.	c #2B2E1E",
"o.	c #2A2C1C",
"p.	c #2E2D20",
"q.	c #322C20",
"r.	c #2F2C1F",
"s.	c #312E20",
"t.	c #2F2E20",
"u.	c #2C2D1F",
"v.	c #2D3021",
"w.	c #2F3322",
"x.	c #2C301F",
"y.	c #2B2F1E",
"z.	c #25291B",
"A.	c #262A1C",
"B.	c #282B1D",
"C.	c #272A1C",
"D.	c #2B2A20",
"E.	c #42392B",
"F.	c #342E22",
"G.	c #312C20",
"H.	c #332E21",
"I.	c #2F2D20",
"J.	c #2B2C20",
"K.	c #2C3121",
"L.	c #2C301E",
"M.	c #26291C",
"N.	c #272B1D",
"O.	c #25281B",
"P.	c #493E30",
"Q.	c #332D21",
"R.	c #312B1F",
"S.	c #302C20",
"T.	c #2D2C1F",
"U.	c #292A1E",
"V.	c #2B3021",
"W.	c #292F20",
"X.	c #2C3020",
"Y.	c #27291C",
"Z.	c #282A1D",
"`.	c #25271C",
" +	c #BBB5B5",
".+	c #B8AFAB",
"++	c #E0D6CD",
"@+	c #E7D9D0",
"#+	c #4F4132",
"$+	c #342E21",
"%+	c #2E2A1E",
"&+	c #2D2B1F",
"*+	c #28291D",
"=+	c #292E21",
"-+	c #2C3222",
";+	c #2D3121",
">+	c #25291D",
",+	c #25271B",
"'+	c #23271B",
")+	c #C6BEBB",
"!+	c #E5DAD1",
"~+	c #E9DDD1",
"{+	c #E9DBCF",
"]+	c #E6D7C9",
"^+	c #E3D2C2",
"/+	c #CEBCAB",
"(+	c #90837B",
"_+	c #756968",
":+	c #594A37",
"<+	c #362E22",
"[+	c #302B1E",
"}+	c #302C1F",
"|+	c #2D2A1E",
"1+	c #2C3122",
"2+	c #2E3222",
"3+	c #2C2F20",
"4+	c #24291D",
"5+	c #25281C",
"6+	c #272A1D",
"7+	c #24281C",
"8+	c #22261B",
"9+	c #2A2A20",
"0+	c #615B62",
"a+	c #7F797B",
"b+	c #BEB5B2",
"c+	c #E3D8D0",
"d+	c #E9DCCF",
"e+	c #E3D2C4",
"f+	c #DFCBBC",
"g+	c #DCC5B3",
"h+	c #D2BAA5",
"i+	c #918379",
"j+	c #534E51",
"k+	c #3A3124",
"l+	c #2F291E",
"m+	c #2E291D",
"n+	c #2C2A1E",
"o+	c #27271C",
"p+	c #2C3123",
"q+	c #2D3122",
"r+	c #282B1E",
"s+	c #24281D",
"t+	c #25291C",
"u+	c #24271B",
"v+	c #28291E",
"w+	c #998F8C",
"x+	c #E4D8CF",
"y+	c #E4D7CD",
"z+	c #DFCEC1",
"A+	c #D7C2B3",
"B+	c #D6C0B0",
"C+	c #D9C0AD",
"D+	c #C0AA98",
"E+	c #766C66",
"F+	c #42414B",
"G+	c #3F3527",
"H+	c #2D291D",
"I+	c #28291C",
"J+	c #2C3023",
"K+	c #262B1E",
"L+	c #262A1D",
"M+	c #282C1E",
"N+	c #B5AAA1",
"O+	c #D7C7BD",
"P+	c #D0BDB0",
"Q+	c #D2BBAD",
"R+	c #D6BEAB",
"S+	c #DBC2AD",
"T+	c #AC998B",
"U+	c #645D5D",
"V+	c #4C3E2D",
"W+	c #2E291E",
"X+	c #2A2B1E",
"Y+	c #282E22",
"Z+	c #252C20",
"`+	c #292D1F",
" @	c #23281C",
".@	c #827870",
"+@	c #C8B6AA",
"@@	c #C7B0A2",
"#@	c #D1B7A4",
"$@	c #D0B7A2",
"%@	c #A29185",
"&@	c #605A5B",
"*@	c #383123",
"=@	c #2D281C",
"-@	c #2B281D",
";@	c #2C2B20",
">@	c #242B22",
",@	c #242A20",
"'@	c #262C21",
")@	c #272D21",
"!@	c #262B1F",
"~@	c #252A1E",
"{@	c #252A1F",
"]@	c #23271C",
"^@	c #22251C",
"/@	c #434138",
"(@	c #B19E94",
"_@	c #B8A293",
":@	c #CCB29D",
"<@	c #9F9287",
"[@	c #696565",
"}@	c #423929",
"|@	c #29271C",
"1@	c #292A1F",
"2@	c #272C20",
"3@	c #242B21",
"4@	c #222920",
"5@	c #21281F",
"6@	c #25291E",
"7@	c #21251A",
"8@	c #998A81",
"9@	c #C7B0A1",
"0@	c #D0BBAA",
"a@	c #8D8583",
"b@	c #686466",
"c@	c #302B1F",
"d@	c #2A281D",
"e@	c #2A2F21",
"f@	c #262D21",
"g@	c #22271E",
"h@	c #20271D",
"i@	c #22291E",
"j@	c #23291E",
"k@	c #21261C",
"l@	c #1F2219",
"m@	c #57524A",
"n@	c #C8B4A6",
"o@	c #B2A59C",
"p@	c #857F7F",
"q@	c #3D3324",
"r@	c #2B291D",
"s@	c #26271B",
"t@	c #282C1F",
"u@	c #252A1D",
"v@	c #23281D",
"w@	c #22281D",
"x@	c #23291D",
"y@	c #20251C",
"z@	c #292B22",
"A@	c #94847A",
"B@	c #B3A095",
"C@	c #8A807F",
"D@	c #3B3628",
"E@	c #24261C",
"F@	c #202519",
"G@	c #21261A",
"H@	c #282D1D",
"I@	c #21271A",
"J@	c #1F251A",
"K@	c #23291F",
"L@	c #1F251D",
"M@	c #20221A",
"N@	c #322D24",
"O@	c #7D7065",
"P@	c #8A7971",
"Q@	c #5A503E",
"R@	c #24271C",
"S@	c #1C2217",
"T@	c #1A2018",
"U@	c #19201D",
"V@	c #18201D",
"W@	c #18211E",
"X@	c #19221E",
"Y@	c #19221F",
"Z@	c #192221",
"`@	c #1A221F",
" #	c #1B211A",
".#	c #2E2B22",
"+#	c #2C2F2D",
"@#	c #3C3C3C",
"##	c #484B48",
"$#	c #434848",
"%#	c #3E4645",
"&#	c #323B39",
"*#	c #30382D",
"=#	c #2A3634",
"-#	c #334143",
";#	c #403828",
">#	c #29291C",
",#	c #202319",
"'#	c #1A1F19",
")#	c #161D1B",
"!#	c #191F21",
"~#	c #171F20",
"{#	c #182121",
"]#	c #1A2322",
"^#	c #1B2322",
"/#	c #1A2321",
"(#	c #192120",
"_#	c #19201C",
":#	c #2A2B1F",
"<#	c #303023",
"[#	c #222521",
"}#	c #262A28",
"|#	c #373E3B",
"1#	c #444E4B",
"2#	c #4F5B51",
"3#	c #4F5A4A",
"4#	c #515B4A",
"5#	c #556051",
"6#	c #475144",
"7#	c #42463C",
"8#	c #4B4A3B",
"9#	c #4F4C38",
"0#	c #4D4938",
"a#	c #61503C",
"b#	c #2E2D25",
"c#	c #323A33",
"d#	c #2B312B",
"e#	c #222824",
"f#	c #1D2321",
"g#	c #1C2322",
"h#	c #192323",
"i#	c #192325",
"j#	c #192223",
"k#	c #1A2220",
"l#	c #1B211F",
"m#	c #1C231F",
"n#	c #292C23",
"o#	c #2C2F26",
"p#	c #252A24",
"q#	c #262A26",
"r#	c #30352E",
"s#	c #384039",
"t#	c #465043",
"u#	c #495241",
"v#	c #62615D",
"w#	c #3F403B",
"x#	c #43483E",
"y#	c #49503E",
"z#	c #4B4E36",
"A#	c #44442D",
"B#	c #363426",
"C#	c #262922",
"D#	c #202724",
"E#	c #1D2423",
"F#	c #1B2320",
"G#	c #1F2520",
"H#	c #272C23",
"I#	c #2D3024",
"J#	c #2B2D23",
"K#	c #2A2C23",
"L#	c #292C26",
"M#	c #282D26",
"N#	c #282D27",
"O#	c #2D312D",
"P#	c #2C322F",
"Q#	c #2E342F",
"R#	c #313632",
"S#	c #4D5252",
"T#	c #2E3332",
"U#	c #1C2120",
"V#	c #1F221E",
"W#	c #2C2F23",
"X#	c #505238",
"Y#	c #515132",
"Z#	c #4C4A30",
"`#	c #4C4930",
" $	c #4B452C",
".$	c #453D28",
"+$	c #43402A",
"@$	c #403F2A",
"#$	c #383927",
"$$	c #393A28",
"%$	c #3E3E29",
"&$	c #3C3924",
"*$	c #323222",
"=$	c #303022",
"-$	c #2C2E23",
";$	c #2A2E26",
">$	c #2B2E2A",
",$	c #2B2F2A",
"'$	c #292E28",
")$	c #2B2F29",
"!$	c #323631",
"~$	c #212627",
"{$	c #61603D",
"]$	c #5E5C3B",
"^$	c #5C5938",
"/$	c #5E5A35",
"($	c #605C36",
"_$	c #5B5934",
":$	c #565331",
"<$	c #5B5833",
"[$	c #565330",
"}$	c #4F4D2D",
"|$	c #4F4D2F",
"1$	c #47452B",
"2$	c #3F3D27",
"3$	c #373624",
"4$	c #2F3023",
"5$	c #313326",
"6$	c #2D3025",
"7$	c #292D24",
"8$	c #2E3127",
"9$	c #4A443C",
"0$	c #32302C",
"a$	c #282724",
"b$	c #6B683E",
"c$	c #65613A",
"d$	c #5C5A38",
"e$	c #5B5B3B",
"f$	c #515135",
"g$	c #45462F",
"h$	c #3D3C29",
"i$	c #3F3F2D",
"                                                                                                ",
"                                                                                                ",
"                                                                                                ",
"                                                                                                ",
"                                                                                                ",
"                                                                                                ",
"                    .                                                                           ",
"                + @ # $ %                                                                       ",
"              & * = - ; > , ' )                                                                 ",
"              ! ~ { ] ^ ^ / ( _ : < [                                                           ",
"              } | 1 2 3 4 5 6 7 8 9 0 a b                                                       ",
"                c d e f g h i j k l m n n o p                                                   ",
"                  q r s t u v w x y z A B C D E F                                               ",
"                      G H I J K L M N O P Q R S T U V                                           ",
"                        W X Y Z `  ...+.@.#.$.%.&.B *.=.                                        ",
"                          -.;.>.,.'.).!.~.{.].a ^./.(._.:.                                      ",
"                          <.[.}.|.1.2.3.4.5.6.7.8.9.0.a.b.                                      ",
"                            c.d.e.f.g.h.i.j.k.7.l.m.n.o.p.                                      ",
"                            }.q.r.s.t.u.v.w.x.y.z.A.B.C.D.                                      ",
"                            E.F.G.H.I.J.i.K.L.k M.M.N.O.                                        ",
"                            P.Q.R.S.T.U.V.W.X.A.O.Y.Z.`.                   +.+++@+              ",
"                            #+$+R.%+&+*+=+-+;+>+,+Y.M.'+          )+!+~+{+]+^+/+(+_+            ",
"                            :+<+[+}+|+*+1+2+3+4+5+6+7+8+9+0+a+b+c+d+e+f+g+h+i+j+                ",
"                              k+l+m+n+o+p+q+r+s+t+M.8 u+v+w+x+y+z+A+B+C+D+E+F+                  ",
"                              G+[+H+|+I+J+=+K+L+N.M+>+O.5+N+O+P+Q+R+S+T+U+                      ",
"                              V+W+f |+X+Y+Z+`+r+L+4+4+ @^ .@+@@@#@$@%@&@                        ",
"                                *@=@-@;@>@,@'@)@!@~@{@]@^@/@(@_@:@<@[@                          ",
"                                }@H+|@1@Y+2@3@4@5@5@,@6@]@7@8@9@0@a@b@                          ",
"                                  c@d@o+e@e@f@g@h@h@i@j@k@l@m@n@o@p@                            ",
"                                  q@r@s@6+K+t@u@v@w@x@~@< y@z@A@B@C@                            ",
"                                  D@E@`.F@G@H@I@J@: : < K@L@M@N@O@P@                            ",
"                                  Q@R@]@J@S@T@U@V@W@X@Y@Z@`@ #r@.#+#@###$#%#&#*#=#-#            ",
"                                  ;#>#,#'#)#!#~#{#]#^#/#/#(#_#:#<#[#}#|#1#2#3#4#5#6#7#8#9#0#    ",
"                                  a#b#c#d#e#f#g#h#i#j#h#k#l#m#n#o#p#q#r#s#t#u#                  ",
"                                v#w#x#y#z#A#B#C#D#E#(#F#G#H#I#J#K#L#M#N#O#P#Q#R#                ",
"                          S#T#U#V#W#X#Y#Z#`# $.$+$@$#$$$%$@$&$*$=$-$;$>$,$'$)$!$                ",
"                        ~$              {$]$^$/$($_$:$<$[$}$|$1$2$3$4$5$6$7$8$                  ",
"    9$0$a$                                          b$c$        d$e$f$g$h$i$                    ",
"                                                                                                ",
"                                                                                                ",
"                                                                                                ",
"                                                                                                ",
"                                                                                                ",
"                                                                                                ",
"                                                                                                ",
"                                                                                                ",
"                                                                                                ",
"                                                                                                "};
