/* XPM */
const char * compiler16_xpm[] = {
"16 16 63 1",
" 	c None",
".	c #353228",
"+	c #423829",
"@	c #322E21",
"#	c #28291D",
"$	c #262A1D",
"%	c #313423",
"&	c #403827",
"*	c #373524",
"=	c #393926",
"-	c #3B3D29",
";	c #44432A",
">	c #4B4131",
",	c #353022",
"'	c #323223",
")	c #303423",
"!	c #2D301F",
"~	c #323120",
"{	c #322D20",
"]	c #2C2E20",
"^	c #2B3020",
"/	c #262A1C",
"(	c #322C1F",
"_	c #2A2B1F",
":	c #2A2F20",
"<	c #232619",
"[	c #46453D",
"}	c #BBAFAB",
"|	c #DDCCBE",
"1	c #C6B6A9",
"2	c #A39790",
"3	c #342E21",
"4	c #272C20",
"5	c #202519",
"6	c #535148",
"7	c #C6B3A4",
"8	c #AB9A8E",
"9	c #282A1E",
"0	c #262C20",
"a	c #23291D",
"b	c #24281E",
"c	c #96877C",
"d	c #21251A",
"e	c #1A211C",
"f	c #1A2220",
"g	c #18211E",
"h	c #34342B",
"i	c #393C39",
"j	c #465049",
"k	c #454E42",
"l	c #43423B",
"m	c #434736",
"n	c #373728",
"o	c #252A24",
"p	c #272C23",
"q	c #2C2E23",
"r	c #292D27",
"s	c #323831",
"t	c #635F38",
"u	c #5B5832",
"v	c #4C4A2D",
"w	c #403F2C",
"x	c #353628",
"                ",
"                ",
"   .            ",
"  +@#$%         ",
"    &*=-;       ",
"    >,')!~      ",
"     {]^/       ",
"     (_:<[}|12  ",
"     3_45678    ",
"      90abc     ",
"      defghijk  ",
"     lmnopqrs   ",
"        tuvwx   ",
"                ",
"                ",
"                "};
